<svg width="24" height="24" viewBox="0 0 24 24" fill="none" xmlns="http://www.w3.org/2000/svg">
<path d="M8.70372 2.53635C6.29825 3.38152 4.21784 5.20187 3.04762 7.47732C2.65754 8.25747 2.33248 9.10264 2.20245 10.0128C1.74736 12.1582 2.07243 14.4987 3.04762 16.4491C3.69774 17.7493 4.60792 18.8545 5.77815 19.7647C6.81835 20.6099 8.05359 21.26 9.41886 21.5851C11.1092 22.0402 12.8645 22.0402 14.4898 21.6501C15.9851 21.325 17.4154 20.6099 18.5856 19.5047C19.8209 18.3995 20.6661 16.9692 21.1211 15.3439C21.6412 13.6535 21.7063 11.8332 21.3812 10.0778C18.2606 10.0778 15.14 10.0778 12.0194 10.0778C12.0194 11.3781 12.0194 12.6783 12.0194 13.9786C13.8397 13.9786 15.6601 13.9786 17.4154 13.9786C17.2204 15.2138 16.4402 16.3841 15.4 17.0342C14.7499 17.4893 13.9697 17.7493 13.1896 17.8794C12.4094 18.0094 11.5643 18.0094 10.7841 17.8794C10.004 17.7493 9.22382 17.3592 8.57369 16.9042C7.53349 16.189 6.68833 15.0838 6.29825 13.8486C5.84316 12.6133 5.84316 11.2481 6.29825 9.9478C6.62331 9.10264 7.0784 8.25747 7.72853 7.60734C8.50868 6.76218 9.54888 6.17706 10.7191 5.98203C11.6943 5.78699 12.6695 5.78699 13.6447 6.11205C14.4248 6.3721 15.205 6.82719 15.7901 7.34729C16.3752 6.76218 17.0253 6.11205 17.6105 5.52694C17.9355 5.20187 18.2606 4.87681 18.5856 4.55175C17.6755 3.70658 16.5703 2.99144 15.4 2.53635C13.2546 1.82121 10.8491 1.82121 8.70372 2.53635Z" fill="#1D1F23"/>
<path d="M8.70372 2.53635C10.8491 1.82121 13.2547 1.82121 15.4001 2.60136C16.5703 3.05645 17.6756 3.70658 18.5857 4.61676C18.2607 4.94182 17.9356 5.26688 17.6105 5.59195C17.0254 6.17706 16.3753 6.82719 15.7902 7.4123C15.2051 6.82719 14.4249 6.3721 13.6448 6.17706C12.7346 5.91701 11.6944 5.852 10.7192 6.04704C9.61398 6.30709 8.57377 6.8922 7.72861 7.67235C7.07848 8.32248 6.55838 9.16765 6.29833 10.0128C5.19312 9.16765 4.15283 8.32248 3.04762 7.47732C4.21784 5.20187 6.29825 3.38152 8.70372 2.53635Z" fill="#1D1F23"/>
<path d="M2.20245 10.0128C2.39749 9.16765 2.65754 8.32248 3.04762 7.47732C4.15283 8.32248 5.19312 9.16765 6.29833 10.0128C5.84324 11.2481 5.84316 12.6133 6.29825 13.9136C5.19304 14.7587 4.15283 15.6039 3.04762 16.4491C2.07243 14.4337 1.74736 12.1582 2.20245 10.0128Z" fill="#1D1F23"/>
<path d="M11.9544 10.0779C15.0751 10.0779 18.1957 10.0779 21.3163 10.0779C21.6413 11.8333 21.5763 13.6536 21.0562 15.3439C20.6011 16.9042 19.756 18.3345 18.5207 19.5048C17.4805 18.6596 16.4403 17.8794 15.3351 17.0343C16.3753 16.3191 17.0904 15.2139 17.3505 13.9787C15.5301 13.9787 13.7098 13.9787 11.9544 13.9787C11.9544 12.6784 11.9544 11.3782 11.9544 10.0779Z" fill="#1D1F23"/>
<path d="M3.04762 16.4491C4.15283 15.6039 5.19304 14.7587 6.29825 13.9136C6.68833 15.1488 7.53357 16.254 8.57378 16.9692C9.2239 17.4243 10.0041 17.7493 10.7842 17.9444C11.5644 18.0744 12.3445 18.0744 13.1897 17.9444C13.9698 17.8143 14.75 17.4893 15.4001 17.0992C16.4403 17.9444 17.4805 18.7245 18.5857 19.5697C17.4155 20.6099 16.0502 21.325 14.4899 21.7151C12.7996 22.1052 11.0443 22.1052 9.41894 21.6501C8.11869 21.325 6.88345 20.6749 5.77823 19.8297C4.67301 18.8546 3.69774 17.6843 3.04762 16.4491Z" fill="#1D1F23"/>
</svg>
