<svg width="18" height="17" viewBox="0 0 18 17" fill="none" xmlns="http://www.w3.org/2000/svg">
<path d="M15.6301 2.9574C15.247 2.57416 14.7922 2.27014 14.2916 2.06272C13.791 1.8553 13.2545 1.74854 12.7126 1.74854C12.1707 1.74854 11.6342 1.8553 11.1336 2.06272C10.633 2.27014 10.1782 2.57416 9.79509 2.9574L9.00009 3.7524L8.20509 2.9574C7.43132 2.18364 6.38186 1.74894 5.28759 1.74894C4.19331 1.74894 3.14386 2.18364 2.37009 2.9574C1.59632 3.73117 1.16162 4.78063 1.16162 5.8749C1.16162 6.96918 1.59632 8.01864 2.37009 8.7924L3.16509 9.5874L9.00009 15.4224L14.8351 9.5874L15.6301 8.7924C16.0133 8.40934 16.3174 7.95451 16.5248 7.45392C16.7322 6.95333 16.839 6.41677 16.839 5.8749C16.839 5.33304 16.7322 4.79648 16.5248 4.29589C16.3174 3.79529 16.0133 3.34047 15.6301 2.9574V2.9574Z" stroke="#8D8D8D" stroke-width="1.5" stroke-linecap="round" stroke-linejoin="round"/>
</svg>
