<svg width="52" height="52" viewBox="0 0 52 52" fill="none" xmlns="http://www.w3.org/2000/svg">
<circle cx="26" cy="26" r="26" fill="#E03271"/>
<path d="M35.2312 22.5L24.95 17.7312L13.575 21.4937C13.575 21.4937 12.9187 26.3937 13.575 31.425C14.5812 39.2562 22.9812 37.9 22.9812 37.9C28.975 40.6125 34.9687 38.075 37.725 31.5562C38.7312 29.15 38.8625 22.4562 35.2312 22.5Z" fill="white"/>
<path d="M13.6187 19.175C13.6187 17.425 14.9312 16.025 16.5937 16.025H16.6375C18.2562 16.025 19.6125 17.425 19.6125 19.175V24.0312C19.6125 25.7812 18.3 27.1812 16.6375 27.1812H16.5937C14.9312 27.1812 13.6187 25.7812 13.6187 24.0312V19.175Z" fill="white"/>
<path d="M15.7188 26C17.3813 26 18.6938 24.6 18.6938 22.8937V18.0375C18.6938 17.5562 18.5625 17.075 18.3875 16.6812C19.2188 17.25 19.5688 18.2125 19.5688 19.2187V24.075C19.5688 25.825 18.3 27.1812 16.6375 27.1812H16.5938C15.4125 27.1812 14.3625 26.4375 13.8813 25.3437C14.4063 25.7375 15.0625 26 15.7188 26Z" fill="#E6B796"/>
<path d="M31.2937 19.4375C28.975 17.8188 28.2312 19.9188 24.0312 19.6563C22.1937 19.525 20.9687 22.9813 23.5937 24.5563C27.225 26.7 27.8375 24.2063 28.6687 25.3C29.5437 26.4375 30.4625 26.7438 31.1625 28.0125C31.6875 28.9313 36.6312 28.0563 37.3312 26.3063C38.7312 22.9375 34.925 22.0188 31.2937 19.4375Z" fill="#E6B796"/>
<path d="M31.5563 20.0937C29.15 18.4312 28.4063 20.6187 24.0313 20.3125C22.1063 20.1812 20.8375 23.7687 23.5938 25.3875C27.4 27.6187 28.0125 25.0375 28.8875 26.175C29.8063 27.3562 30.7688 27.6625 31.4688 29.0187C31.9938 29.9812 29.8938 33.3062 29.8938 33.3062C29.8938 33.3062 34.4438 37.025 35.6688 35.275C37.9438 32.0375 37.725 29.2812 37.9 27.2687C38.25 22.5875 35.3188 22.7625 31.5563 20.0937Z" fill="white"/>
<path d="M19.525 16.375C19.525 14.625 20.8375 13.225 22.5 13.225H22.5437C24.2062 13.225 25.5187 14.625 25.5187 16.375V21.2313C25.5187 22.9813 24.2062 24.3813 22.5437 24.3813H22.5C20.8375 24.3813 19.525 22.9813 19.525 21.2313V16.375Z" fill="white"/>
<path d="M21.625 23.2C23.2875 23.2 24.6 21.8437 24.6 20.0937V15.2375C24.6 14.7562 24.4688 14.275 24.2938 13.8375C25.1688 14.5375 25.475 15.3687 25.475 16.4187V21.275C25.475 23.025 24.1625 24.3375 22.5438 24.3375H22.5C21.3188 24.3375 20.2688 23.5937 19.7875 22.5C20.3125 22.9375 20.9688 23.2 21.625 23.2Z" fill="#E6B796"/>
<path d="M25.5187 16.025C25.5187 14.275 26.8312 12.875 28.4937 12.875H28.5375C30.1562 12.875 31.5125 14.275 31.5125 16.025V20.8812C31.5125 22.6312 30.2 24.0312 28.5375 24.0312H28.4937C26.8312 24.0312 25.5187 22.6312 25.5187 20.8812V16.025Z" fill="white"/>
<path d="M27.6188 22.85C29.2812 22.85 30.5937 21.4938 30.5937 19.7438V14.8875C30.5937 14.4062 30.5063 13.925 30.3313 13.5312C31.2063 14.1875 31.5125 15.0625 31.5125 16.0688V20.925C31.5125 22.675 30.2 23.9875 28.5375 23.9875H28.4938C27.3125 23.9875 26.2625 23.2438 25.7812 22.15C26.3062 22.5875 26.9188 22.85 27.6188 22.85Z" fill="#E6B796"/>
<path d="M31.3812 17.6C31.3812 15.85 32.6937 14.45 34.3562 14.45H34.4C36.0625 14.45 37.375 15.85 37.375 17.6V22.4563C37.375 24.2063 36.0625 25.6063 34.4 25.6063H34.3125C32.65 25.6063 31.3375 24.2063 31.3375 22.4563V17.6H31.3812Z" fill="white"/>
<path d="M33.525 24.425C35.1875 24.425 36.4562 23.025 36.4562 21.3188V16.4625C36.4562 15.9813 36.3687 15.5 36.1937 15.1063C37.1125 15.7625 37.375 16.6375 37.375 17.6438V22.5C37.375 24.25 36.1062 25.6063 34.4875 25.6063H34.4437C33.2625 25.6063 32.2125 24.8625 31.7312 23.7688C32.2125 24.1625 32.825 24.425 33.525 24.425ZM30.2 26.1313C27.7062 24.9063 22.1062 27.0063 23.2 32.2563C23.2 26.7875 28.0562 25.8688 30.2 26.1313Z" fill="#E6B796"/>
<path d="M30.8562 29.0187C31.0312 29.325 30.9437 29.85 30.725 30.4187C31.1187 29.5437 31.425 28.625 31.2062 28.1875C30.4625 26.8312 30.025 26.525 29.1062 25.3437C28.2312 24.2062 27.6187 26.8312 23.8125 24.5562C22.4125 23.725 22.0625 22.3687 22.325 21.275C21.625 22.4125 21.6687 24.3375 23.4625 25.3875C27.2687 27.6187 27.8812 25.0375 28.7562 26.175C29.675 27.4 30.1125 27.7062 30.8562 29.0187Z" fill="#E6B796"/>
<path d="M36.325 22.8937C38.7312 24.3375 37.9 30.9437 35.6687 33.9187C32.1687 38.6 27.575 38.5562 22.9812 37.6375C22.9812 37.6375 17.425 39.1687 14.1875 33.9187C16.2 39.475 22.9812 38.3375 22.9812 38.3375C27.8375 39.825 32.5625 39.475 36.2812 34.6625C38.6875 31.6 40.1312 24.1187 36.325 22.8937Z" fill="#E6B796"/>
</svg>
